<?xml version="1.0" encoding="UTF-8"?>
<svg id="Layer_2" data-name="Layer 2" xmlns="http://www.w3.org/2000/svg" viewBox="0 0 12 8.63">
  <defs>
    <style>
      .cls-1 {
        fill: #fff;
        fill-rule: evenodd;
      }
    </style>
  </defs>
  <g id="message">
    <path class="cls-1" d="M10.27,8.63H3c-.95-.01-1.71-.78-1.7-1.73v-3.95L.08.86C-.08.59,0,.24.28.08.37.03.47,0,.58,0h9.69c.95,0,1.72.76,1.73,1.71,0,0,0,0,0,.01v5.18c0,.95-.76,1.72-1.71,1.73,0,0-.01,0-.02,0Z"/>
    <path d="M3.25,1.89h6.81c.25,0,.46.21.46.46h0c0,.25-.21.46-.46.46H3.25c-.25,0-.46-.21-.46-.46h0c0-.25.21-.46.46-.46Z"/>
    <path d="M3.25,3.72h6.81c.25,0,.46.21.46.46h0c0,.25-.21.46-.46.46H3.25c-.25,0-.46-.21-.46-.46h0c0-.25.21-.46.46-.46Z"/>
    <path d="M3.25,5.59h4.96c.25,0,.46.21.46.46h0c0,.25-.21.46-.46.46H3.25c-.25,0-.46-.21-.46-.46h0c0-.25.21-.46.46-.46Z"/>
  </g>
</svg>